<svg xmlns="http://www.w3.org/2000/svg" width="240" height="240" viewBox="0 0 240 240" role="img" aria-label="GMIG mark">
  <defs>
    <linearGradient id="gold" x1="0" y1="0" x2="1" y2="1">
      <stop offset="0" stop-color="#D4AF37"/>
      <stop offset="0.55" stop-color="#F5E6A3"/>
      <stop offset="1" stop-color="#B58B1D"/>
    </linearGradient>
    <clipPath id="globeClip">
      <circle cx="120" cy="120" r="84"/>
    </clipPath>
  </defs>

  <circle cx="120" cy="120" r="92" fill="#0B0B0D" stroke="url(#gold)" stroke-width="5"/>
  <circle cx="120" cy="120" r="84" fill="none" stroke="url(#gold)" stroke-width="2" opacity="0.9"/>

  <g clip-path="url(#globeClip)" stroke="url(#gold)" stroke-width="2.2" opacity="0.85" fill="none">
    <ellipse cx="120" cy="120" rx="92" ry="22"/>
    <ellipse cx="120" cy="120" rx="92" ry="44"/>
    <ellipse cx="120" cy="120" rx="92" ry="66"/>

    <ellipse cx="120" cy="120" rx="22" ry="92"/>
    <ellipse cx="120" cy="120" rx="44" ry="92"/>
    <ellipse cx="120" cy="120" rx="66" ry="92"/>

    <path d="M120 28 C120 60, 120 85, 120 120 C120 155, 120 180, 120 212" opacity="1"/>
    <path d="M28 120 C60 120, 90 120, 120 120 C150 120, 180 120, 212 120" opacity="1"/>
  </g>

  <text x="120" y="132" font-family="Montserrat, Poppins, Arial, sans-serif"
        font-size="34" font-weight="800" fill="url(#gold)" text-anchor="middle" letter-spacing="2">GMIG</text>
</svg>
